<svg xmlns="http://www.w3.org/2000/svg" viewBox="0 0 140.93 63.76">
  <title>img-main-logo</title>
  <g id="Layer_2" data-name="Layer 2">
    <g id="Layer_1-2" data-name="Layer 1">
      <g>
        <path d="M0,11.73H46.92V0H11.73A11.73,11.73,0,0,0,0,11.73Z" style="fill: #fff"/>
        <path d="M58.65,35.19V0H46.92V23.46A11.73,11.73,0,0,0,58.65,35.19Z" style="fill: #fff"/>
        <path d="M35.19,17.59H0V29.32H35.19v5.87H0V46.92H35.19A11.73,11.73,0,0,0,46.92,35.19V29.32A11.73,11.73,0,0,0,35.19,17.59Z" style="fill: #fff"/>
        <polygon points="82.11 46.92 70.38 46.92 70.38 11.73 82.11 11.73 82.11 46.92 82.11 46.92" style="fill: #fff"/>
        <path d="M105.56,0H82.1V11.73h23.46V23.46h11.73V11.73A11.73,11.73,0,0,0,105.56,0Z" style="fill: #fff"/>
        <path d="M117.29,46.92h23.46V35.19H117.29V23.46H105.56V35.19a11.73,11.73,0,0,0,11.73,11.73Z" style="fill: #fff"/>
        <polygon points="140.75 0 117.29 0 117.29 11.73 140.75 11.73 140.75 0 140.75 0" style="fill: #fff"/>
        <polygon points="82.11 35.19 93.83 35.19 93.83 23.46 82.11 23.46 82.11 35.19 82.11 35.19" style="fill: #fff"/>
        <polygon points="93.83 46.92 105.56 46.92 105.56 35.19 93.83 35.19 93.83 46.92 93.83 46.92" style="fill: #fff"/>
        <polygon points="82.11 23.46 58.65 23.46 58.65 35.19 82.11 35.19 82.11 23.46 82.11 23.46" style="fill: #fff"/>
        <path d="M102.86,63.49v-5l-.14-.14H98.44l-.14.14v1.38l.14.14h2.35l.14.14c0,1.11-.7,1.94-2.22,1.94-1.8,0-2.76-1.39-2.76-3.32s1-3.32,2.76-3.32a2.1,2.1,0,0,1,2.22,1.24l.13.14h1.66l.14-.14c-.28-1.38-1.38-2.9-4.15-2.9s-4.7,2.07-4.7,5,1.8,5,4.56,5a3.21,3.21,0,0,0,2.49-1h.14l.14.69.14.14h1.24l.14-.14Zm9.54-6.64c0-1.93-1.39-2.9-3.32-2.9h-4.56l-.14.14v9.4l.14.14h1.65l.14-.14v-3.6l.14-.14h1.38l.28.14,2.77,3.6.27.14H112l.14-.14V62.11l-1.8-2.36v-.13a2.75,2.75,0,0,0,2.08-2.77Zm-1.94,0c0,1-.55,1.25-1.38,1.25h-2.63l-.14-.14V55.74l.14-.13h2.63c.83,0,1.38.27,1.38,1.24Zm10,1.94c0,1.93-1,3.32-2.77,3.32s-2.77-1.39-2.77-3.32,1-3.32,2.77-3.32,2.77,1.38,2.77,3.32Zm1.93,0c0-2.91-1.79-5-4.7-5s-4.7,2.07-4.7,5,1.8,5,4.7,5,4.7-2.07,4.7-5Zm8.87-4.7L131.1,54h-1.66l-.13.14v5.8c0,1.39-.56,2.22-1.94,2.22s-1.94-.83-1.94-2.22v-5.8l-.14-.14h-1.65l-.14.14v5.8a3.87,3.87,0,0,0,7.74,0v-5.8Zm9.69,2.76c0-1.93-1.38-2.9-3.31-2.9h-4.57l-.14.14v9.4l.14.14h1.66l.14-.14v-3.6l.14-.14h2.63c1.93,0,3.31-1,3.31-2.9Zm-1.93,0c0,1-.55,1.25-1.38,1.25H135l-.14-.14V55.74l.14-.13h2.63c.83,0,1.38.27,1.38,1.24Z" style="fill: #fff"/>
      </g>
    </g>
  </g>
</svg>
